<svg xmlns="http://www.w3.org/2000/svg" width="111.999" height="140" viewBox="0 0 111.999 140">
  <g id="creative-ideas" transform="translate(-48.003)">
    <g id="Group_122" data-name="Group 122" transform="translate(48.003)">
      <g id="Group_121" data-name="Group 121" transform="translate(0)">
        <path id="Path_5511" data-name="Path 5511" d="M234.336,14a2.333,2.333,0,0,0,2.333-2.333V2.333a2.333,2.333,0,1,0-4.667,0v9.333A2.333,2.333,0,0,0,234.336,14Z" transform="translate(-178.337)" fill="#f1b74d"/>
        <path id="Path_5512" data-name="Path 5512" d="M140.3,28.122l4.667,8.08a2.333,2.333,0,1,0,4.057-2.307L149,33.869l-4.667-8.08A2.333,2.333,0,1,0,140.28,28.1Z" transform="translate(-113.15 -17.431)" fill="#f1b74d"/>
        <path id="Path_5513" data-name="Path 5513" d="M73.765,96.319l.027.015L81.872,101a2.333,2.333,0,0,0,2.36-4.026l-.027-.015-8.08-4.667a2.333,2.333,0,0,0-2.36,4.026Z" transform="translate(-65.434 -65.147)" fill="#f1b74d"/>
        <path id="Path_5514" data-name="Path 5514" d="M62,186.333A2.333,2.333,0,0,0,59.67,184H50.336a2.333,2.333,0,1,0,0,4.667H59.67A2.333,2.333,0,0,0,62,186.333Z" transform="translate(-48.003 -130.334)" fill="#f1b74d"/>
        <path id="Path_5515" data-name="Path 5515" d="M81.9,260.277l-.027.016-8.08,4.667a2.333,2.333,0,1,0,2.306,4.057l.027-.016,8.08-4.667a2.333,2.333,0,0,0-2.306-4.057Z" transform="translate(-65.434 -184.148)" fill="#f1b74d"/>
        <path id="Path_5516" data-name="Path 5516" d="M375.216,264.975l-.027-.016-8.08-4.667a2.333,2.333,0,1,0-2.361,4.026l.027.016,8.08,4.667a2.333,2.333,0,0,0,2.361-4.026Z" transform="translate(-271.548 -184.147)" fill="#f1b74d"/>
        <path id="Path_5517" data-name="Path 5517" d="M395.67,184h-9.333a2.333,2.333,0,1,0,0,4.667h9.333a2.333,2.333,0,1,0,0-4.667Z" transform="translate(-286.004 -130.334)" fill="#f1b74d"/>
        <path id="Path_5518" data-name="Path 5518" d="M365.983,101.313A2.334,2.334,0,0,0,367.15,101l8.08-4.667a2.333,2.333,0,0,0-2.307-4.057l-.027.015-8.08,4.667a2.333,2.333,0,0,0,1.167,4.354Z" transform="translate(-271.587 -65.147)" fill="#f1b74d"/>
        <path id="Path_5519" data-name="Path 5519" d="M309.163,37.057h0a2.333,2.333,0,0,0,3.187-.856h0l4.667-8.08a2.333,2.333,0,1,0-4.026-2.361l-.016.027-4.667,8.08A2.334,2.334,0,0,0,309.163,37.057Z" transform="translate(-232.167 -17.431)" fill="#f1b74d"/>
        <path id="Path_5520" data-name="Path 5520" d="M193.669,206.666A2.333,2.333,0,0,0,196,204.333V178.666h4.667a9.333,9.333,0,1,0-9.333-9.333V174h-4.667v-4.667a9.333,9.333,0,1,0-9.333,9.333H182v25.666a2.333,2.333,0,0,0,4.667,0V178.666h4.667v25.666A2.333,2.333,0,0,0,193.669,206.666ZM196,169.333A4.667,4.667,0,1,1,200.669,174H196ZM182,174h-4.667A4.667,4.667,0,1,1,182,169.333Z" transform="translate(-133.003 -113.334)" fill="#f1b74d"/>
        <path id="Path_5521" data-name="Path 5521" d="M151.2,64.046a37.333,37.333,0,0,0-25.477,66.147,6.954,6.954,0,0,1,2.665,5.336V141a7,7,0,0,0,4.667,6.571v2.763a6.955,6.955,0,0,0,1.82,4.667,6.893,6.893,0,0,0,0,9.333A6.97,6.97,0,0,0,140.055,176a2.275,2.275,0,0,0,1.918-3.586,2.473,2.473,0,0,0-.261-.4,2.411,2.411,0,0,0-.649-.425c-.068-.035-.135-.063-.205-.091a2.474,2.474,0,0,0-.735-.147c-.023,0-.044-.014-.068-.014a2.333,2.333,0,1,1,0-4.667h9.333a2.333,2.333,0,1,0,0-4.667h-9.333a2.333,2.333,0,1,1,0-4.667h9.333a2.333,2.333,0,1,0,0-4.667h-9.333a2.333,2.333,0,0,1-2.333-2.333V148h11.667a2.333,2.333,0,1,0,0-4.667h-14A2.333,2.333,0,0,1,133.055,141v-5.472a11.6,11.6,0,0,0-4.375-8.948,32.666,32.666,0,0,1,22.3-57.866,33.042,33.042,0,0,1,31.075,32.421,32.475,32.475,0,0,1-12.122,25.58,11.566,11.566,0,0,0-4.212,9.084V141a2.333,2.333,0,0,1-2.333,2.333h-7a2.333,2.333,0,1,0,0,4.667h4.667v2.333a2.333,2.333,0,0,1-2.333,2.333h-2.333a2.333,2.333,0,0,0,0,4.667h2.333a2.333,2.333,0,1,1,0,4.667h-2.333a2.333,2.333,0,1,0,0,4.667h2.333a2.333,2.333,0,1,1,0,4.667H147.054a2.333,2.333,0,1,0,0,4.667h8.934a7,7,0,0,1-11.832,2.317,2.334,2.334,0,0,0-3.486,3.1,11.641,11.641,0,0,0,20.185-5.789,6.932,6.932,0,0,0,3.045-11.3,6.893,6.893,0,0,0,0-9.333,6.956,6.956,0,0,0,1.82-4.667v-2.763A7,7,0,0,0,170.388,141v-5.2a7.014,7.014,0,0,1,2.476-5.453A37.112,37.112,0,0,0,186.721,101.1,37.767,37.767,0,0,0,151.2,64.046Z" transform="translate(-93.388 -45.335)" fill="#f1b74d"/>
      </g>
    </g>
  </g>
</svg>
