<svg xmlns="http://www.w3.org/2000/svg" width="140" height="140.002" viewBox="0 0 140 140.002">
  <g id="Group_143" data-name="Group 143" transform="translate(-2 -1.999)">
    <g id="media-monitor-screen-Digital_Marketing" data-name="media-monitor-screen-Digital Marketing" transform="translate(2 1.999)">
      <path id="Path_5556" data-name="Path 5556" d="M135,32.335h-4.667V30h2.333a7,7,0,1,0,0-14h-2.333V4.335a2.259,2.259,0,0,0-.957-1.867,2.312,2.312,0,0,0-2.053-.373l-30.007,9.24H81.333A2.333,2.333,0,0,0,79,13.668V16H74.333A2.333,2.333,0,0,0,72,18.335v9.333A2.333,2.333,0,0,0,74.333,30H79v2.333H65v-21A2.333,2.333,0,0,0,62.667,9H16a2.333,2.333,0,0,0-2.333,2.333v21H9a7.021,7.021,0,0,0-7,7V114a7.021,7.021,0,0,0,7,7H62.667v7h-14a2.333,2.333,0,0,0-2.333,2.333v9.333A2.333,2.333,0,0,0,48.667,142H95.333a2.333,2.333,0,0,0,2.333-2.333v-9.333A2.333,2.333,0,0,0,95.333,128h-14v-7H135a7.021,7.021,0,0,0,7-7V39.335a7.021,7.021,0,0,0-7-7Zm-4.667-11.667h2.333a2.333,2.333,0,0,1,0,4.667h-2.333ZM100,15.395l25.667-7.91V38.518L100,30.608ZM83.667,16H95.333V30H83.667Zm6.65,18.667-1.68,11.667H86V34.668Zm-13.65-9.333V20.668H79v4.667ZM18.333,13.668h42V46.335h-42ZM93,132.668v4.667H51v-4.667ZM67.333,128v-7h9.333v7Zm70-14A2.333,2.333,0,0,1,135,116.335H9A2.333,2.333,0,0,1,6.667,114v-2.333H137.333Zm0-7H6.667V39.335A2.333,2.333,0,0,1,9,37h4.667V48.668A2.333,2.333,0,0,0,16,51H62.667A2.333,2.333,0,0,0,65,48.668V37H81.333V48.668A2.333,2.333,0,0,0,83.667,51h7a2.333,2.333,0,0,0,2.31-2.006L95.03,34.668h2.287l30.007,9.24A2.158,2.158,0,0,0,128,44a2.368,2.368,0,0,0,2.333-2.333V37H135a2.333,2.333,0,0,1,2.333,2.333Z" transform="translate(-2 -1.999)" fill="#f1b74d"/>
      <path id="Path_5557" data-name="Path 5557" d="M8.333,69H69a2.333,2.333,0,0,0,2.333-2.333V29.333A2.333,2.333,0,0,0,69,27H8.333A2.333,2.333,0,0,0,6,29.333V66.667A2.333,2.333,0,0,0,8.333,69Zm2.333-4.667V33.508l26.777,16.48a2.333,2.333,0,0,0,2.445,0l26.777-16.48V64.333Zm5.91-32.667H60.756L38.667,45.261Z" transform="translate(3.333 31.335)" fill="#f1b74d"/>
      <path id="Path_5558" data-name="Path 5558" d="M38.333,57.667H43v7A2.333,2.333,0,0,0,45.333,67H85a2.333,2.333,0,0,0,2.333-2.333v-28A2.333,2.333,0,0,0,85,34.333H82.667v-7A2.333,2.333,0,0,0,80.333,25h-42A2.333,2.333,0,0,0,36,27.333v28A2.333,2.333,0,0,0,38.333,57.667Zm44.333,4.667h-35V39h35Zm-42-32.667H78v4.667H45.333A2.333,2.333,0,0,0,43,36.667V53H40.667Z" transform="translate(43.333 28.669)" fill="#f1b74d"/>
      <path id="Path_5559" data-name="Path 5559" d="M43,33h4.667v4.667H43Z" transform="translate(52.667 39.335)" fill="#f1b74d"/>
      <path id="Path_5560" data-name="Path 5560" d="M47,33H63.333v4.667H47Z" transform="translate(58 39.335)" fill="#f1b74d"/>
      <path id="Path_5561" data-name="Path 5561" d="M43,37h9.333v4.667H43Z" transform="translate(52.667 44.669)" fill="#f1b74d"/>
      <path id="Path_5562" data-name="Path 5562" d="M49,37H60.667v4.667H49Z" transform="translate(60.667 44.669)" fill="#f1b74d"/>
      <path id="Path_5563" data-name="Path 5563" d="M16.106,28.32a2.333,2.333,0,0,0,2.27.1l14-7a2.333,2.333,0,0,0,0-4.177l-14-7A2.333,2.333,0,0,0,15,12.334v14A2.333,2.333,0,0,0,16.106,28.32Zm3.561-12.21,6.449,3.225-6.449,3.225Z" transform="translate(15.333 8.668)" fill="#f1b74d"/>
    </g>
  </g>
</svg>
