<svg xmlns="http://www.w3.org/2000/svg" width="140" height="140" viewBox="0 0 140 140">
  <g id="graphic_design" data-name="graphic design" transform="translate(-1 -1)">
    <path id="Path_5487" data-name="Path 5487" d="M52.774,55.548A6.774,6.774,0,1,0,46,48.774,6.782,6.782,0,0,0,52.774,55.548Zm0-9.032a2.258,2.258,0,1,1-2.258,2.258A2.26,2.26,0,0,1,52.774,46.516Z" transform="translate(56.613 51.581)" fill="#f1b74d"/>
    <path id="Path_5488" data-name="Path 5488" d="M132.329,90.821a4.333,4.333,0,0,1,.924-4.749l3.285-3.288L126.955,73.2l-3.29,3.288a4.358,4.358,0,0,1-4.835.885,4.3,4.3,0,0,1-2.669-3.992v-4.64H111.53a40,40,0,0,0-2-10.5l26.13-26.13A18.225,18.225,0,1,0,109.888,6.338l-26.1,26.105a40.113,40.113,0,0,0-10.651-1.989A17.97,17.97,0,0,0,52.5,22.029,22.536,22.536,0,0,0,10.631,37.712a13.546,13.546,0,0,0,3.918,26.514h16.38A40.943,40.943,0,0,0,30.355,71a31,31,0,0,0,2.4,12.469L12.613,103.615,1.4,132.758a6.009,6.009,0,0,0-.4,2.174A6.067,6.067,0,0,0,9.244,140.6l29.143-11.209,14.729-14.732a6.6,6.6,0,0,0,1.581,6.022,6.716,6.716,0,0,0,3.3,11.042,13.754,13.754,0,0,0,26.013,0,6.764,6.764,0,0,0,5.058-6.526c0-.169-.038-.327-.05-.492l2.8,2.8,3.29-3.288a4.422,4.422,0,0,1,7.5,3.109v4.64h13.548v-4.64a4.425,4.425,0,0,1,7.506-3.109l3.288,3.288,9.583-9.583-3.285-3.288a4.367,4.367,0,0,1-.887-4.835,4.31,4.31,0,0,1,3.995-2.671H141V93.581h-4.64a4.344,4.344,0,0,1-4.031-2.759ZM98.494,97.478a67.387,67.387,0,0,0,7.061-7.7,11.157,11.157,0,0,1,3.832-.711,11.4,11.4,0,1,1-10.893,8.414Zm2.712-53.489,10.439-10.441,8.1,8.1-12.06,12.06A40.98,40.98,0,0,0,101.206,43.989Zm2.342-24.925,3.581-3.581,19.388,19.388-3.581,3.581ZM122.775,5.516a13.709,13.709,0,0,1,9.694,23.4l-2.759,2.759L110.322,12.29l2.759-2.759A13.625,13.625,0,0,1,122.775,5.516Zm-22.42,16.741,8.1,8.1L98.018,40.789a40.933,40.933,0,0,0-9.712-6.483ZM107.129,71c0,11.749-5.916,17.52-12.18,23.628-4.313,4.207-8.743,8.556-11.322,14.894a6.677,6.677,0,0,0-1.337-.135H73.258V98.1a6.782,6.782,0,0,0-6.774-6.774H61.968a2.258,2.258,0,0,1,0-4.516H84.548a6.774,6.774,0,0,0,0-13.548H66.484A2.26,2.26,0,0,1,64.226,71V64.226h11.29a11.29,11.29,0,0,0,0-22.581c-.063,0-.122.018-.185.018a17.779,17.779,0,0,0,.185-2.276,18.089,18.089,0,0,0-.533-4.281A36.322,36.322,0,0,1,107.129,71ZM57.452,116.161A2.26,2.26,0,0,1,59.71,113.9H82.29a2.258,2.258,0,0,1,0,4.516H59.71A2.26,2.26,0,0,1,57.452,116.161Zm-28.42,0,16.6-16.6a40.988,40.988,0,0,1,7.257,8.935L37.129,124.259ZM5.516,50.677a9.032,9.032,0,0,1,18.065,0H28.1a13.553,13.553,0,0,0-12.97-13.519,18.046,18.046,0,0,1,33.223-13.35,18.079,18.079,0,0,0-8.849,13.6,9.031,9.031,0,0,0-6.887,8.748h4.516a4.516,4.516,0,1,1,9.032,0h4.516a9.018,9.018,0,0,0-6.627-8.666A13.532,13.532,0,1,1,70.5,42.871a11.267,11.267,0,0,0-6.277,10.064h4.516a6.774,6.774,0,1,1,6.774,6.774H14.548A9.041,9.041,0,0,1,5.516,50.677ZM59.71,64.226V71a6.782,6.782,0,0,0,6.774,6.774H84.548a2.258,2.258,0,0,1,0,4.516H61.968a6.774,6.774,0,1,0,0,13.548h4.516A2.26,2.26,0,0,1,68.742,98.1v11.29H59.71a6.677,6.677,0,0,0-1.337.135c-2.579-6.338-7.009-10.687-11.322-14.894C40.787,88.52,34.871,82.749,34.871,71a36.4,36.4,0,0,1,.7-6.774ZM42.406,96.4,25.839,112.968l-8.1-8.1L34.97,87.642A50.8,50.8,0,0,0,42.406,96.4Zm-27,12.523,17.667,17.667-14.957,5.754-8.463-8.463ZM7.625,136.38a1.553,1.553,0,0,1-2.007-2l2.263-5.885,5.625,5.625Zm63.375.1a9.278,9.278,0,0,1-7.957-4.516H78.957A9.278,9.278,0,0,1,71,136.484Zm11.29-9.032H59.71a2.258,2.258,0,1,1,0-4.516H82.29a2.258,2.258,0,1,1,0,4.516Zm54.194-24.839h-.124a8.941,8.941,0,0,0-6.3,15.215l.095.095-3.2,3.2-.095-.095a8.941,8.941,0,0,0-15.215,6.3v.124h-4.516v-.124a8.941,8.941,0,0,0-15.217-6.3l-.095.095-3.06-3.06a6.619,6.619,0,0,0,.307-1.9,6.709,6.709,0,0,0-1.517-4.22,29.121,29.121,0,0,1,6.169-9.624,15.8,15.8,0,1,0,15.671-17.769c-.221,0-.436.023-.655.032a29.626,29.626,0,0,0,2.843-11.322h.07v.124a8.941,8.941,0,0,0,15.215,6.3l.095-.095,3.2,3.2-.095.095a8.941,8.941,0,0,0,6.3,15.215h.124Z" transform="translate(0 0)" fill="#f1b74d"/>
  </g>
</svg>
