<svg id="Group_163" data-name="Group 163" xmlns="http://www.w3.org/2000/svg" width="512" height="512" viewBox="0 0 512 512">
  <g id="Group_144" data-name="Group 144">
    <g id="Group_143" data-name="Group 143">
      <path id="Path_5556" data-name="Path 5556" d="M477.083,440.5A34.957,34.957,0,0,0,512,405.584V50A50.057,50.057,0,0,0,462,0H50A50.057,50.057,0,0,0,0,50V405.584A34.957,34.957,0,0,0,34.917,440.5H46V492H10a10,10,0,0,0,0,20H502a10,10,0,0,0,0-20H466V440.5ZM20,50A30.034,30.034,0,0,1,50,20H462a30.034,30.034,0,0,1,30,30V72H21c-.339,0-.674.018-1,.051Zm90,442H66V402h44Zm112,0H178V291.432h44Zm112,0H290V376h44ZM456,256.5H392a10,10,0,0,0-10,10V317a10,10,0,0,0,20,0V276.5h44V492H402V384.25a10,10,0,0,0-20,0V492H354V366a10,10,0,0,0-10-10H280a10,10,0,0,0-10,10V492H242V281.432a10,10,0,0,0-10-10H168a10,10,0,0,0-10,10V492H130V392a10,10,0,0,0-10-10H56a10,10,0,0,0-10,10v28.5H34.917A14.934,14.934,0,0,1,20,405.584V91.949c.33.033.665.051,1,.051H492V405.584A14.934,14.934,0,0,1,477.083,420.5H466v-154A10,10,0,0,0,456,256.5Z" fill="#f1b74d"/>
    </g>
  </g>
  <g id="Group_146" data-name="Group 146">
    <g id="Group_145" data-name="Group 145">
      <path id="Path_5557" data-name="Path 5557" d="M448,36H222.065a10,10,0,0,0,0,20H448a10,10,0,0,0,0-20Z" fill="#f1b74d"/>
    </g>
  </g>
  <g id="Group_148" data-name="Group 148">
    <g id="Group_147" data-name="Group 147">
      <path id="Path_5558" data-name="Path 5558" d="M111.07,38.93A9.994,9.994,0,1,0,114,46,10.076,10.076,0,0,0,111.07,38.93Z" fill="#f1b74d"/>
    </g>
  </g>
  <g id="Group_150" data-name="Group 150">
    <g id="Group_149" data-name="Group 149">
      <path id="Path_5559" data-name="Path 5559" d="M71.07,38.93A9.994,9.994,0,1,0,74,46,10.076,10.076,0,0,0,71.07,38.93Z" fill="#f1b74d"/>
    </g>
  </g>
  <g id="Group_152" data-name="Group 152">
    <g id="Group_151" data-name="Group 151">
      <path id="Path_5560" data-name="Path 5560" d="M151.07,38.93A9.994,9.994,0,1,0,154,46,10.058,10.058,0,0,0,151.07,38.93Z" fill="#f1b74d"/>
    </g>
  </g>
  <g id="Group_154" data-name="Group 154">
    <g id="Group_153" data-name="Group 153">
      <path id="Path_5561" data-name="Path 5561" d="M399.07,345.57a9.995,9.995,0,1,0,2.93,7.07A10.033,10.033,0,0,0,399.07,345.57Z" fill="#f1b74d"/>
    </g>
  </g>
  <g id="Group_156" data-name="Group 156">
    <g id="Group_155" data-name="Group 155">
      <path id="Path_5562" data-name="Path 5562" d="M424,135.939a35.973,35.973,0,0,0-29.129,57.118l-66.425,66.425a35.913,35.913,0,0,0-33.2-.809l-69.359-69.359a36,36,0,1,0-62.125,1.547L104.71,249.913a36.029,36.029,0,1,0,14.143,14.142L178.611,204.3a35.918,35.918,0,0,0,33.134-.842l68.68,68.679a36,36,0,1,0,62.163,1.488l68.205-68.205A36,36,0,1,0,424,135.939ZM87.337,297.432a16,16,0,1,1,16-16A16.019,16.019,0,0,1,87.337,297.432ZM194.372,187.939a16,16,0,1,1,16-16A16.019,16.019,0,0,1,194.372,187.939ZM311.072,307a16,16,0,1,1,16-16A16.019,16.019,0,0,1,311.072,307ZM424,187.939a16,16,0,1,1,16-16A16.019,16.019,0,0,1,424,187.939Z" fill="#f1b74d"/>
    </g>
  </g>
  <g id="Group_158" data-name="Group 158">
    <g id="Group_157" data-name="Group 157">
      <path id="Path_5563" data-name="Path 5563" d="M148.33,128.951a9.994,9.994,0,1,0,2.93,7.069A10.094,10.094,0,0,0,148.33,128.951Z" fill="#f1b74d"/>
    </g>
  </g>
  <g id="Group_160" data-name="Group 160">
    <g id="Group_159" data-name="Group 159">
      <path id="Path_5564" data-name="Path 5564" d="M104,126.021H56a10,10,0,1,0,0,20h48a10,10,0,1,0,0-20Z" fill="#f1b74d"/>
    </g>
  </g>
  <g id="Group_162" data-name="Group 162">
    <g id="Group_161" data-name="Group 161">
      <path id="Path_5565" data-name="Path 5565" d="M104,174.021H56a10,10,0,0,0,0,20h48a10,10,0,0,0,0-20Z" fill="#f1b74d"/>
    </g>
  </g>
</svg>
