<svg xmlns="http://www.w3.org/2000/svg" width="140.005" height="140" viewBox="0 0 140.005 140">
  <g id="social-media" transform="translate(0 -0.008)">
    <path id="Path_5522" data-name="Path 5522" d="M132.485.008h-8.7c-2.567,0-2.683,4.1,0,4.1h8.7A3.422,3.422,0,0,1,135.9,7.528v44.94a3.422,3.422,0,0,1-3.418,3.418h-6.223a2.051,2.051,0,0,0-2.051,2.051v5.525l-6.975-6.975a2.051,2.051,0,0,0-1.45-.6H75.867V40.7a7.532,7.532,0,0,0-7.628-7.52V7.528A3.422,3.422,0,0,1,71.657,4.11h40.456c2.567,0,2.683-4.1,0-4.1H71.657a7.528,7.528,0,0,0-7.52,7.52V33.185H7.52A7.528,7.528,0,0,0,0,40.7v44.94a7.528,7.528,0,0,0,7.52,7.52h4.173v8.425a2.061,2.061,0,0,0,3.5,1.45l9.875-9.876H41.2v28.852a7.528,7.528,0,0,0,7.52,7.52H91.994l9.875,9.876a2.061,2.061,0,0,0,3.5-1.45v-8.425h4.173a7.528,7.528,0,0,0,7.52-7.52V77.077a7.528,7.528,0,0,0-7.52-7.52H75.867V59.988h39.069l9.875,9.876a2.061,2.061,0,0,0,3.5-1.45V59.988h4.173a7.528,7.528,0,0,0,7.52-7.52V7.528a7.528,7.528,0,0,0-7.52-7.52ZM41.2,77.077v1.2c-1.405.745-2.561,1.276-3.264,1.583a51.563,51.563,0,0,1-7.611-4.165c-2.138-1.42-4.5,1.933-2.268,3.417a53.029,53.029,0,0,0,9.137,4.883,2.049,2.049,0,0,0,1.486,0c.062-.024,1.022-.4,2.521-1.122v6.191H24.219a2.052,2.052,0,0,0-1.45.6l-6.975,6.975V91.114a2.051,2.051,0,0,0-2.051-2.051H7.52A3.422,3.422,0,0,1,4.1,85.645V40.7A3.422,3.422,0,0,1,7.52,37.287H68.347A3.422,3.422,0,0,1,71.765,40.7V69.557H58.006a20.653,20.653,0,0,0,3.961-11.944A13.782,13.782,0,0,0,48.294,43.754a13.53,13.53,0,0,0-10.36,4.807,13.532,13.532,0,0,0-10.359-4.809A13.783,13.783,0,0,0,13.9,57.609c0,4.912,1.86,9.621,5.53,14,1.649,1.966,4.867-.581,3.142-2.636C19.54,65.353,18,61.531,18,57.609a9.677,9.677,0,0,1,9.573-9.755A9.521,9.521,0,0,1,36.1,53.178a2.2,2.2,0,0,0,1.833,1.132,2.05,2.05,0,0,0,1.833-1.131c4.672-9.089,18-5.747,18.1,4.434,0,4.139-1.709,8.153-5.08,11.944H48.715a7.529,7.529,0,0,0-7.52,7.52Zm68.348-3.418a3.422,3.422,0,0,1,3.418,3.418v44.94a3.422,3.422,0,0,1-3.418,3.418H103.32a2.051,2.051,0,0,0-2.051,2.051v5.525l-6.975-6.975a2.051,2.051,0,0,0-1.45-.6H48.715a3.422,3.422,0,0,1-3.418-3.418V77.077a3.422,3.422,0,0,1,3.418-3.418Z" fill="#f1b74d"/>
    <path id="Path_5523" data-name="Path 5523" d="M317.086,33.714a2.051,2.051,0,0,0-1.81,1.087L309.9,44.889a3.726,3.726,0,0,1-1.792,1.9,5.023,5.023,0,0,0-4.272-2.385h-3.45a5.028,5.028,0,0,0-5.023,5.023v20.7a5.029,5.029,0,0,0,5.023,5.023h3.45a5.031,5.031,0,0,0,4.619-3.05,9.5,9.5,0,0,0,3.223.523h17.391a6.322,6.322,0,0,0,6.107-4.7l3.73-14.115a5.823,5.823,0,0,0-5.6-7.093H325.38a.874.874,0,0,1-.873-.873v-4.7a7.43,7.43,0,0,0-7.421-7.421ZM304.761,70.127a.922.922,0,0,1-.921.921h-3.45a.922.922,0,0,1-.921-.921V49.43a.922.922,0,0,1,.921-.921h3.45a.922.922,0,0,1,.921.921ZM325.38,50.813h7.93a1.663,1.663,0,0,1,1.621,1.987l-3.718,14.071a2.217,2.217,0,0,1-2.142,1.649H311.682a5.362,5.362,0,0,1-2.819-.723V50.876a7.346,7.346,0,0,0,4.7-4.136l4.647-8.727a3.325,3.325,0,0,1,2.193,3.122v4.7A4.981,4.981,0,0,0,325.38,50.813Z" transform="translate(-214.6 -24.489)" fill="#f1b74d"/>
    <path id="Path_5524" data-name="Path 5524" d="M205.393,354.148a7.278,7.278,0,0,0,7.27-7.27c-.4-9.644-14.142-9.641-14.539,0A7.278,7.278,0,0,0,205.393,354.148Zm0-10.438a3.168,3.168,0,1,1-3.168,3.168A3.171,3.171,0,0,1,205.393,343.71Z" transform="translate(-143.947 -246.765)" fill="#f1b74d"/>
    <path id="Path_5525" data-name="Path 5525" d="M270.062,354.148a7.278,7.278,0,0,0,7.27-7.27c-.4-9.644-14.142-9.641-14.539,0A7.278,7.278,0,0,0,270.062,354.148Zm0-10.438a3.168,3.168,0,1,1-3.168,3.168A3.171,3.171,0,0,1,270.062,343.71Z" transform="translate(-190.932 -246.765)" fill="#f1b74d"/>
    <path id="Path_5526" data-name="Path 5526" d="M334.73,354.148a7.278,7.278,0,0,0,7.27-7.27c-.4-9.644-14.142-9.641-14.539,0A7.278,7.278,0,0,0,334.73,354.148Zm0-10.438a3.168,3.168,0,1,1-3.168,3.168A3.171,3.171,0,0,1,334.73,343.71Z" transform="translate(-237.917 -246.765)" fill="#f1b74d"/>
  </g>
</svg>
