<svg xmlns="http://www.w3.org/2000/svg" width="140" height="140" viewBox="0 0 140 140">
  <g id="Group_144" data-name="Group 144" transform="translate(-4890 -4282)">
    <rect id="Rectangle_181" data-name="Rectangle 181" width="140" height="140" transform="translate(4890 4282)" fill="rgba(255,255,255,0)"/>
    <g id="Group_143" data-name="Group 143" transform="translate(4890 4290.186)">
      <path id="Path_5556" data-name="Path 5556" d="M50.72,49.257a2.188,2.188,0,0,0-2.188-2.188H46.4V30.856a2.188,2.188,0,0,0-3.973-1.266l-13.046,18.4a2.19,2.19,0,0,0,1.785,3.453H42.028v3.964a2.188,2.188,0,0,0,4.375,0V51.445h2.129a2.188,2.188,0,0,0,2.188-2.188ZM42.028,47.07H35.4l6.624-9.333Z" transform="translate(55.553 46.759)" fill="#f1b74d"/>
      <path id="Path_5557" data-name="Path 5557" d="M49.275,28.55a2.185,2.185,0,0,0-2.841,1.225L36.366,55.121a2.188,2.188,0,1,0,4.066,1.616L50.5,31.388a2.185,2.185,0,0,0-1.225-2.838Z" transform="translate(69.406 46.238)" fill="#f1b74d"/>
      <path id="Path_5558" data-name="Path 5558" d="M60.492,30.105a2.188,2.188,0,0,0-1.978-1.251H43.561a2.188,2.188,0,1,0,0,4.375H54.134a58.119,58.119,0,0,0-5.5,9.371,43.984,43.984,0,0,0-3.5,12.224,2.19,2.19,0,0,0,1.951,2.4h.228a2.188,2.188,0,0,0,2.173-1.957,40.44,40.44,0,0,1,3.144-10.894,63.442,63.442,0,0,1,7.583-11.959,2.185,2.185,0,0,0,.283-2.31Z" transform="translate(79.3 47.119)" fill="#f1b74d"/>
      <path id="Path_5559" data-name="Path 5559" d="M39.725,53.229H27.918a6.011,6.011,0,0,1,1.724-2.272,61.872,61.872,0,0,1,5.125-3.643,29.378,29.378,0,0,0,3.582-2.584,10.033,10.033,0,0,0,3.068-6.916,9.476,9.476,0,0,0-2.593-6.6,8.622,8.622,0,0,0-6.344-2.538,8.887,8.887,0,0,0-9.427,9.333,2.188,2.188,0,1,0,4.375,0,4.579,4.579,0,0,1,5.052-4.958,4.305,4.305,0,0,1,3.208,1.219,5.055,5.055,0,0,1,1.348,3.436,5.67,5.67,0,0,1-1.695,3.844,30.918,30.918,0,0,1-2.993,2.112,67.157,67.157,0,0,0-5.492,3.911A10.448,10.448,0,0,0,23.047,55.5a2.193,2.193,0,0,0,2.188,2.109H39.719a2.188,2.188,0,0,0,0-4.375Z" transform="translate(44.163 46.751)" fill="#f1b74d"/>
      <path id="Path_5560" data-name="Path 5560" d="M57.544,4.271a57.544,57.544,0,1,0,0,115.088,2.185,2.185,0,0,0,2.188-2.188v-9.3a2.188,2.188,0,0,0-4.375,0v7.064A52.705,52.705,0,0,1,32.9,108.861l3.5-6.061a2.189,2.189,0,1,0-3.792-2.188l-3.5,6.055A53.545,53.545,0,0,1,12.647,90.25l6.081-3.5a2.189,2.189,0,1,0-2.188-3.792l-6.087,3.52A52.851,52.851,0,0,1,4.483,64h7a2.188,2.188,0,1,0,0-4.375h-7a52.851,52.851,0,0,1,5.971-22.476l6.108,3.526a2.189,2.189,0,0,0,2.188-3.792l-6.081-3.5A53.545,53.545,0,0,1,29.126,16.962l3.5,6.055a2.189,2.189,0,0,0,3.792-2.188l-3.5-6.061A52.7,52.7,0,0,1,55.377,8.69v7.064a2.188,2.188,0,1,0,4.375,0v-9.3a2.185,2.185,0,0,0-2.208-2.188Z" transform="translate(0 0)" fill="#f1b74d"/>
      <path id="Path_5561" data-name="Path 5561" d="M31.468,13.76a2.188,2.188,0,0,0-2.188,2.188V42.49L14.467,52.937a2.19,2.19,0,0,0,2.526,3.576L32.743,45.43a2.185,2.185,0,0,0,.913-1.8V15.948a2.188,2.188,0,0,0-2.188-2.188Z" transform="translate(26.075 18.188)" fill="#f1b74d"/>
      <circle id="Ellipse_36" data-name="Ellipse 36" cx="2.196" cy="2.196" r="2.196" transform="translate(69.692 6.147)" fill="#f1b74d"/>
      <circle id="Ellipse_37" data-name="Ellipse 37" cx="2.196" cy="2.196" r="2.196" transform="translate(83.03 11.688)" fill="#f1b74d"/>
      <circle id="Ellipse_38" data-name="Ellipse 38" cx="2.196" cy="2.196" r="2.196" transform="translate(94.475 20.465)" fill="#f1b74d"/>
      <circle id="Ellipse_39" data-name="Ellipse 39" cx="2.196" cy="2.196" r="2.196" transform="translate(103.278 31.933)" fill="#f1b74d"/>
      <circle id="Ellipse_40" data-name="Ellipse 40" cx="2.196" cy="2.196" r="2.196" transform="translate(108.822 45.289)" fill="#f1b74d"/>
      <circle id="Ellipse_41" data-name="Ellipse 41" cx="2.196" cy="2.196" r="2.196" transform="translate(110.701 59.633)" fill="#f1b74d"/>
    </g>
  </g>
</svg>
