<svg xmlns="http://www.w3.org/2000/svg" width="134.463" height="140" viewBox="0 0 134.463 140">
  <g id="ui-ux-design" transform="translate(-10.125)">
    <path id="Path_5502" data-name="Path 5502" d="M172.8,32.676a7.669,7.669,0,0,0-7.661-7.661H128.655V5.871A5.878,5.878,0,0,0,122.784,0H70.824a5.878,5.878,0,0,0-5.871,5.871V60.61H51a2.048,2.048,0,0,0,0,4.1H64.954v4.358H51a2.048,2.048,0,0,0,0,4.1H64.954v.8a2.048,2.048,0,0,0,4.1,0v-.8H80.1a2.048,2.048,0,0,0,0-4.1H69.05V64.706H80.1a2.048,2.048,0,0,0,0-4.1H69.05V5.871A1.777,1.777,0,0,1,70.825,4.1h51.96a1.777,1.777,0,0,1,1.775,1.775V25.015h-5.124V12a3.151,3.151,0,0,0-3.14-3.14H77.315A3.151,3.151,0,0,0,74.174,12V39.788a3.153,3.153,0,0,0,3.14,3.14h22.813a2.048,2.048,0,0,0,0-4.1H82.514L96.8,28.426l12.291,8.95V90.794H70.824a1.777,1.777,0,0,1-1.775-1.775V84.066a2.048,2.048,0,0,0-4.1,0v4.953a5.878,5.878,0,0,0,5.871,5.871H109.1v37.45A7.669,7.669,0,0,0,116.756,140h48.38a7.669,7.669,0,0,0,7.661-7.661V85.826a2.048,2.048,0,0,0-4.1,0V115.1H113.191V45.545H168.7V75.289a2.048,2.048,0,1,0,4.1,0ZM111.1,12.952,96.8,23.359,82.513,12.952ZM78.27,36.856V14.929L93.326,25.892Zm37.069-21.927V25.148a7.673,7.673,0,0,0-6.234,7.167l-8.821-6.423ZM168.7,119.2v13.141a3.569,3.569,0,0,1-3.565,3.565h-48.38a3.569,3.569,0,0,1-3.565-3.565V119.2Zm-55.51-77.749V32.676a3.569,3.569,0,0,1,3.565-3.565h48.38a3.569,3.569,0,0,1,3.565,3.565v8.774Z" transform="translate(-28.208)" fill="#f1b74d"/>
    <circle id="Ellipse_30" data-name="Ellipse 30" cx="3.676" cy="3.676" r="3.676" transform="translate(109.061 124.293)" fill="#f1b74d"/>
    <path id="Path_5503" data-name="Path 5503" d="M364.825,28.494h21.934a2.048,2.048,0,0,0,0-4.1H364.825a2.048,2.048,0,0,0,0,4.1Z" transform="translate(-256.223 -17.727)" fill="#f1b74d"/>
    <path id="Path_5504" data-name="Path 5504" d="M364.825,60.039h7.812a2.048,2.048,0,1,0,0-4.1h-7.812a2.048,2.048,0,0,0,0,4.1Z" transform="translate(-256.223 -40.646)" fill="#f1b74d"/>
    <path id="Path_5505" data-name="Path 5505" d="M14.883,156.529l3.567-4.118a2.048,2.048,0,0,0-3.1-2.682l-4.728,5.459a2.048,2.048,0,0,0,0,2.682l4.728,5.459a2.048,2.048,0,0,0,3.1-2.682Z" transform="translate(0 -108.274)" fill="#f1b74d"/>
    <path id="Path_5506" data-name="Path 5506" d="M59.952,163.536a2.049,2.049,0,0,0,2.889-.208l4.728-5.459a2.048,2.048,0,0,0,0-2.682l-4.728-5.459a2.048,2.048,0,0,0-3.1,2.682l3.567,4.118-3.567,4.119A2.049,2.049,0,0,0,59.952,163.536Z" transform="translate(-35.688 -108.273)" fill="#f1b74d"/>
    <path id="Path_5507" data-name="Path 5507" d="M347.482,340.627a2.443,2.443,0,0,1,1.856.873,6.359,6.359,0,0,0,4.52,1.858,2.048,2.048,0,0,0,0-4.1,2.443,2.443,0,0,1-1.856-.873,6.429,6.429,0,0,0-9.041,0,2.41,2.41,0,0,1-3.712,0,6.428,6.428,0,0,0-9.04,0,2.409,2.409,0,0,1-3.711,0,6.357,6.357,0,0,0-4.52-1.858,2.048,2.048,0,1,0,0,4.1,2.442,2.442,0,0,1,1.856.873,6.428,6.428,0,0,0,9.04,0,2.409,2.409,0,0,1,3.711,0,6.428,6.428,0,0,0,9.041,0A2.442,2.442,0,0,1,347.482,340.627Z" transform="translate(-225.092 -244.511)" fill="#f1b74d"/>
    <path id="Path_5508" data-name="Path 5508" d="M339.25,371.115a6.428,6.428,0,0,0-9.04,0,2.409,2.409,0,0,1-3.711,0,6.357,6.357,0,0,0-4.52-1.858,2.048,2.048,0,1,0,0,4.1,2.442,2.442,0,0,1,1.856.873,6.428,6.428,0,0,0,9.04,0,2.409,2.409,0,0,1,3.711,0,6.358,6.358,0,0,0,4.52,1.858,2.048,2.048,0,0,0,0-4.1A2.442,2.442,0,0,1,339.25,371.115Z" transform="translate(-225.092 -268.288)" fill="#f1b74d"/>
    <path id="Path_5509" data-name="Path 5509" d="M196.424,225.753a2.048,2.048,0,0,0,0-4.1H186.188a2.048,2.048,0,1,0,0,4.1Z" transform="translate(-126.432 -161.048)" fill="#f1b74d"/>
    <path id="Path_5510" data-name="Path 5510" d="M329,188.874a17.228,17.228,0,0,0-15.232,9.208l-7.189.76a1.092,1.092,0,0,0-.592,1.919l5.1,4.33-5.1,4.33a1.092,1.092,0,0,0,.592,1.919l6.254.661A17.214,17.214,0,1,0,329,188.874Zm0,30.327a13.113,13.113,0,1,1,13.112-13.112A13.127,13.127,0,0,1,329,219.2Z" transform="translate(-214.683 -137.229)" fill="#f1b74d"/>
    <circle id="Ellipse_31" data-name="Ellipse 31" cx="3.11" cy="3.11" r="3.11" transform="translate(106.327 64.725) rotate(-13.3)" fill="#f1b74d"/>
  </g>
</svg>
