<svg xmlns="http://www.w3.org/2000/svg" width="140" height="140" viewBox="0 0 140 140">
  <g id="web-development" transform="translate(0)">
    <path id="Path_5498" data-name="Path 5498" d="M47.892,31.3a6.489,6.489,0,1,0,6.489,6.489A6.5,6.5,0,0,0,47.892,31.3Zm0,8.837a2.347,2.347,0,1,1,2.347-2.348A2.35,2.35,0,0,1,47.892,40.141Zm0,0" transform="translate(-30.082 -22.745)" fill="#f1b74d"/>
    <path id="Path_5499" data-name="Path 5499" d="M111.513,31.3A6.489,6.489,0,1,0,118,37.795,6.5,6.5,0,0,0,111.513,31.3Zm0,8.837a2.347,2.347,0,1,1,2.347-2.348A2.35,2.35,0,0,1,111.513,40.141Zm0,0" transform="translate(-76.307 -22.745)" fill="#f1b74d"/>
    <path id="Path_5500" data-name="Path 5500" d="M175.137,31.3a6.489,6.489,0,1,0,6.489,6.49A6.5,6.5,0,0,0,175.137,31.3Zm0,8.837a2.347,2.347,0,1,1,2.348-2.348A2.349,2.349,0,0,1,175.137,40.141Zm0,0" transform="translate(-122.534 -22.745)" fill="#f1b74d"/>
    <path id="Path_5501" data-name="Path 5501" d="M132.406,0H7.593A7.6,7.6,0,0,0,0,7.593v91.4a7.6,7.6,0,0,0,7.593,7.593h13.36a2.07,2.07,0,0,0,.169,2.737l9.951,9.951a42.458,42.458,0,0,0-1.954,4.709H15.048a2.071,2.071,0,0,0-2.07,2.071v11.874A2.071,2.071,0,0,0,15.048,140H55.916a2.071,2.071,0,0,0,2.071-2.071,11.459,11.459,0,1,1,22.919,0A2.071,2.071,0,0,0,82.977,140h40.868a2.071,2.071,0,0,0,2.071-2.071V126.055a2.071,2.071,0,0,0-2.071-2.071h-14.07a42.459,42.459,0,0,0-1.954-4.709l9.952-9.951a2.072,2.072,0,0,0,.168-2.737h14.464A7.6,7.6,0,0,0,140,98.994V47.76a2.071,2.071,0,1,0-4.141,0V98.994a3.455,3.455,0,0,1-3.452,3.451H113.823L101.617,90.239V76.074A2.072,2.072,0,0,0,99.546,74H95.818V61.242l2.922-2.7a2.071,2.071,0,0,0,.574-2.136l-4.97-16.015a2.072,2.072,0,0,0-1.978-1.457H86.843a2.072,2.072,0,0,0-1.978,1.457l-4.97,16.015a2.071,2.071,0,0,0,.574,2.136l2.923,2.7V74H79.664a2.071,2.071,0,0,0-2.071,2.071v5.384H61.3V78.313l7.953-7.953a2.07,2.07,0,0,0,.607-1.464V51.913a2.07,2.07,0,0,0-.616-1.473L58.2,39.532a2.071,2.071,0,0,0-3.527,1.473V59.467l-5.384,3.39L43.9,59.467v-1.18a2.071,2.071,0,1,0-4.142,0V60.61a2.07,2.07,0,0,0,.968,1.753l7.455,4.694a2.069,2.069,0,0,0,2.207,0l7.455-4.694a2.07,2.07,0,0,0,.968-1.753V45.961l6.9,6.817V68.037L57.765,75.99a2.071,2.071,0,0,0-.607,1.465V81.5A2.072,2.072,0,0,0,55.5,83.53V97.6a42.468,42.468,0,0,0-4.71,1.953L41.419,90.18V77.456a2.071,2.071,0,0,0-.607-1.465l-7.953-7.953V52.778l6.9-6.817v2.626a2.071,2.071,0,0,0,4.142,0V41.006a2.072,2.072,0,0,0-3.527-1.474L29.332,50.44a2.069,2.069,0,0,0-.615,1.473V68.9a2.07,2.07,0,0,0,.607,1.464l7.953,7.953V90.239L25.07,102.445H7.593a3.454,3.454,0,0,1-3.451-3.451V30.1H135.857v8.013a2.071,2.071,0,0,0,4.142,0V7.593A7.6,7.6,0,0,0,132.406,0ZM86.867,58.814l-2.629-2.427,4.131-13.31h2.471l4.13,13.31-2.629,2.427a2.073,2.073,0,0,0-.667,1.522V74H87.535V60.336a2.074,2.074,0,0,0-.668-1.522ZM97.475,78.145V90.181L88.1,99.554a42.68,42.68,0,0,0-4.71-1.954V83.531A2.072,2.072,0,0,0,81.735,81.5V78.147h15.74ZM51.366,103.909a38.356,38.356,0,0,1,6.812-2.825A2.072,2.072,0,0,0,59.644,99.1V85.6H79.249V99.1a2.073,2.073,0,0,0,1.467,1.981,38.358,38.358,0,0,1,6.812,2.825,2.072,2.072,0,0,0,2.439-.363L99.517,94,111.5,105.981s0,0,0,0l1.878,1.877-9.55,9.55a2.072,2.072,0,0,0-.363,2.439,38.29,38.29,0,0,1,2.825,6.812,2.071,2.071,0,0,0,1.98,1.465h13.5v7.732H100.718a31.357,31.357,0,0,0-44.013-26.572,2.071,2.071,0,0,0,1.685,3.784,27.216,27.216,0,0,1,38.177,22.787H84.912a15.6,15.6,0,0,0-30.928,0H42.325a26.907,26.907,0,0,1,8.521-17.773,2.071,2.071,0,0,0-2.833-3.022,31.474,31.474,0,0,0-9.835,20.8H17.119v-7.732h13.5A2.072,2.072,0,0,0,32.6,126.66a38.292,38.292,0,0,1,2.825-6.812,2.072,2.072,0,0,0-.363-2.439l-9.55-9.55,1.878-1.877a0,0,0,0,1,0,0L39.378,94l9.55,9.55a2.072,2.072,0,0,0,2.439.363ZM4.142,25.956V7.593A3.455,3.455,0,0,1,7.593,4.142H132.406a3.455,3.455,0,0,1,3.451,3.451V25.956Zm0,0" fill="#f1b74d"/>
  </g>
</svg>
