<svg xmlns="http://www.w3.org/2000/svg" width="140" height="130.272" viewBox="0 0 140 130.272">
  <g id="web-design" transform="translate(-26 -34.617)">
    <path id="Path_5489" data-name="Path 5489" d="M196.774,58.931A6.774,6.774,0,1,0,190,52.157,6.782,6.782,0,0,0,196.774,58.931Zm0-9.032a2.258,2.258,0,1,1-2.258,2.258A2.26,2.26,0,0,1,196.774,49.9Z" transform="translate(-71.419 -4.688)" fill="#f1b74d"/>
    <path id="Path_5490" data-name="Path 5490" d="M118.661,56.012a2.257,2.257,0,0,0,3.193,0l1.791-1.791,1.791,1.791a2.258,2.258,0,1,0,3.193-3.193l-1.791-1.791,1.791-1.791a2.258,2.258,0,0,0-3.193-3.193l-1.791,1.791-1.791-1.791a2.258,2.258,0,0,0-3.193,3.193l1.791,1.791-1.791,1.791A2.257,2.257,0,0,0,118.661,56.012Z" transform="translate(-40.064 -4.689)" fill="#f1b74d"/>
    <path id="Path_5491" data-name="Path 5491" d="M157.669,39.445a2.414,2.414,0,1,0-2.414-2.414A2.414,2.414,0,0,0,157.669,39.445Z" transform="translate(-56.288)" fill="#f1b74d"/>
    <path id="Path_5492" data-name="Path 5492" d="M77.669,55.445a2.414,2.414,0,1,0-2.414-2.414A2.414,2.414,0,0,0,77.669,55.445Z" transform="translate(-21.45 -6.968)" fill="#f1b74d"/>
    <path id="Path_5493" data-name="Path 5493" d="M159.965,81.383H32.035A6.043,6.043,0,0,0,26,87.419V158.9a6.042,6.042,0,0,0,6.035,6.035H83.313L78.8,173.964H67.613a9.922,9.922,0,0,0-9.667,6.774h-18.4a2.258,2.258,0,1,0,0,4.516h112.9a2.258,2.258,0,1,0,0-4.516h-18.4a9.916,9.916,0,0,0-9.668-6.774H113.2l-4.516-9.032h51.277A6.042,6.042,0,0,0,166,158.9V87.419a6.042,6.042,0,0,0-6.035-6.036Zm-30.858,99.355H62.894a5.779,5.779,0,0,1,4.719-2.258h56.774A5.778,5.778,0,0,1,129.107,180.738Zm-20.954-6.774H83.847l4.516-9.032h15.275ZM161.484,158.9a1.521,1.521,0,0,1-1.519,1.519H32.035a1.521,1.521,0,0,1-1.519-1.519V87.419A1.521,1.521,0,0,1,32.035,85.9H159.965a1.521,1.521,0,0,1,1.519,1.519V158.9Z" transform="translate(0 -20.366)" fill="#f1b74d"/>
    <path id="Path_5494" data-name="Path 5494" d="M200.71,97.383H162.323a2.257,2.257,0,0,0-2.258,2.258v15.807H144.258A2.257,2.257,0,0,0,142,117.706v22.581a2.257,2.257,0,0,0,2.258,2.258h47.42a2.257,2.257,0,0,0,2.258-2.258v-9.032h6.774A2.257,2.257,0,0,0,202.968,129V99.641A2.257,2.257,0,0,0,200.71,97.383Zm-11.29,40.645h-42.9V119.964h42.9Zm9.032-11.29h-4.516v-9.032a2.257,2.257,0,0,0-2.258-2.258h-27.1V101.9h33.871Z" transform="translate(-50.516 -27.333)" fill="#f1b74d"/>
    <path id="Path_5495" data-name="Path 5495" d="M179.178,154.27a2.255,2.255,0,0,0,1.6.662c.053,0,.106,0,.161-.006a2.254,2.254,0,0,0,1.645-.9L189.355,145a2.258,2.258,0,0,0-3.612-2.71l-5.213,6.95-2.675-2.675a2.258,2.258,0,1,0-3.193,3.193Z" transform="translate(-64.451 -46.495)" fill="#f1b74d"/>
    <path id="Path_5496" data-name="Path 5496" d="M153.709,197.383H87.065A5.07,5.07,0,0,0,82,202.447v1.162a5.07,5.07,0,0,0,5.065,5.064H153.71a5.07,5.07,0,0,0,5.065-5.064v-1.162a5.07,5.07,0,0,0-5.066-5.064Zm.549,6.226a.55.55,0,0,1-.549.548H87.065a.55.55,0,0,1-.549-.548v-1.162a.55.55,0,0,1,.549-.548H153.71a.55.55,0,0,1,.549.548v1.162Z" transform="translate(-24.387 -70.882)" fill="#f1b74d"/>
    <path id="Path_5497" data-name="Path 5497" d="M89.1,148.8V103.641a2.257,2.257,0,0,0-2.258-2.258H64.258A2.257,2.257,0,0,0,62,103.641V148.8a2.257,2.257,0,0,0,2.258,2.258H86.839A2.257,2.257,0,0,0,89.1,148.8Zm-4.516-2.258H66.516V105.9H84.581Z" transform="translate(-15.677 -29.075)" fill="#f1b74d"/>
    <circle id="Ellipse_28" data-name="Ellipse 28" cx="2.258" cy="2.258" r="2.258" transform="translate(62.129 79.082)" fill="#f1b74d"/>
    <circle id="Ellipse_29" data-name="Ellipse 29" cx="2.258" cy="2.258" r="2.258" transform="translate(141.162 76.824)" fill="#f1b74d"/>
  </g>
</svg>
